<mxfile host="app.diagrams.net" agent="Mozilla/5.0 (Windows NT 10.0; Win64; x64; rv:141.0) Gecko/20100101 Firefox/141.0" version="28.1.0">
  <diagram name="Page-1" id="gTd-K1_sfsswlRuH9sE-">
    <mxGraphModel dx="1375" dy="759" grid="1" gridSize="10" guides="1" tooltips="1" connect="1" arrows="1" fold="1" page="1" pageScale="1" pageWidth="827" pageHeight="1169" math="0" shadow="0">
      <root>
        <mxCell id="0" />
        <mxCell id="1" parent="0" />
        <mxCell id="Wche7l3t2oy5YNCbTmcv-15" style="edgeStyle=orthogonalEdgeStyle;rounded=0;orthogonalLoop=1;jettySize=auto;html=1;entryX=0;entryY=0.5;entryDx=0;entryDy=0;" edge="1" parent="1" source="Wche7l3t2oy5YNCbTmcv-2" target="Wche7l3t2oy5YNCbTmcv-6">
          <mxGeometry relative="1" as="geometry" />
        </mxCell>
        <mxCell id="Wche7l3t2oy5YNCbTmcv-16" style="edgeStyle=orthogonalEdgeStyle;rounded=0;orthogonalLoop=1;jettySize=auto;html=1;entryX=0;entryY=0.5;entryDx=0;entryDy=0;" edge="1" parent="1" source="Wche7l3t2oy5YNCbTmcv-2" target="Wche7l3t2oy5YNCbTmcv-12">
          <mxGeometry relative="1" as="geometry" />
        </mxCell>
        <mxCell id="Wche7l3t2oy5YNCbTmcv-17" style="edgeStyle=orthogonalEdgeStyle;rounded=0;orthogonalLoop=1;jettySize=auto;html=1;entryX=0;entryY=0.5;entryDx=0;entryDy=0;" edge="1" parent="1" source="Wche7l3t2oy5YNCbTmcv-2" target="Wche7l3t2oy5YNCbTmcv-13">
          <mxGeometry relative="1" as="geometry" />
        </mxCell>
        <mxCell id="Wche7l3t2oy5YNCbTmcv-2" value="&lt;div&gt;User&lt;/div&gt;" style="shape=umlActor;verticalLabelPosition=bottom;verticalAlign=top;html=1;" vertex="1" parent="1">
          <mxGeometry x="40" y="160" width="40" height="80" as="geometry" />
        </mxCell>
        <mxCell id="Wche7l3t2oy5YNCbTmcv-4" value="Auth" style="shape=umlFrame;whiteSpace=wrap;html=1;pointerEvents=0;width=60;height=30;" vertex="1" parent="1">
          <mxGeometry x="160" y="40" width="240" height="320" as="geometry" />
        </mxCell>
        <mxCell id="Wche7l3t2oy5YNCbTmcv-6" value="Login" style="ellipse;whiteSpace=wrap;html=1;" vertex="1" parent="1">
          <mxGeometry x="200" y="80" width="140" height="70" as="geometry" />
        </mxCell>
        <mxCell id="Wche7l3t2oy5YNCbTmcv-12" value="Logout" style="ellipse;whiteSpace=wrap;html=1;" vertex="1" parent="1">
          <mxGeometry x="200" y="165" width="140" height="70" as="geometry" />
        </mxCell>
        <mxCell id="Wche7l3t2oy5YNCbTmcv-13" value="Generate tokens" style="ellipse;whiteSpace=wrap;html=1;" vertex="1" parent="1">
          <mxGeometry x="200" y="250" width="140" height="70" as="geometry" />
        </mxCell>
        <mxCell id="Wche7l3t2oy5YNCbTmcv-18" value="User" style="shape=umlFrame;whiteSpace=wrap;html=1;pointerEvents=0;width=60;height=30;" vertex="1" parent="1">
          <mxGeometry x="160" y="400" width="240" height="480" as="geometry" />
        </mxCell>
        <mxCell id="Wche7l3t2oy5YNCbTmcv-26" style="edgeStyle=orthogonalEdgeStyle;rounded=0;orthogonalLoop=1;jettySize=auto;html=1;entryX=0;entryY=0.5;entryDx=0;entryDy=0;" edge="1" parent="1" source="Wche7l3t2oy5YNCbTmcv-22" target="Wche7l3t2oy5YNCbTmcv-23">
          <mxGeometry relative="1" as="geometry" />
        </mxCell>
        <mxCell id="Wche7l3t2oy5YNCbTmcv-22" value="&lt;div&gt;Guest&lt;/div&gt;" style="shape=umlActor;verticalLabelPosition=bottom;verticalAlign=top;html=1;" vertex="1" parent="1">
          <mxGeometry x="40" y="440" width="40" height="80" as="geometry" />
        </mxCell>
        <mxCell id="Wche7l3t2oy5YNCbTmcv-23" value="Create account" style="ellipse;whiteSpace=wrap;html=1;" vertex="1" parent="1">
          <mxGeometry x="210" y="445" width="140" height="70" as="geometry" />
        </mxCell>
        <mxCell id="Wche7l3t2oy5YNCbTmcv-24" value="Delete account" style="ellipse;whiteSpace=wrap;html=1;" vertex="1" parent="1">
          <mxGeometry x="210" y="530" width="140" height="70" as="geometry" />
        </mxCell>
        <mxCell id="Wche7l3t2oy5YNCbTmcv-25" value="Update username" style="ellipse;whiteSpace=wrap;html=1;" vertex="1" parent="1">
          <mxGeometry x="210" y="620" width="140" height="70" as="geometry" />
        </mxCell>
        <mxCell id="Wche7l3t2oy5YNCbTmcv-28" style="edgeStyle=orthogonalEdgeStyle;rounded=0;orthogonalLoop=1;jettySize=auto;html=1;entryX=0;entryY=0.5;entryDx=0;entryDy=0;" edge="1" parent="1" source="Wche7l3t2oy5YNCbTmcv-27" target="Wche7l3t2oy5YNCbTmcv-24">
          <mxGeometry relative="1" as="geometry" />
        </mxCell>
        <mxCell id="Wche7l3t2oy5YNCbTmcv-29" style="edgeStyle=orthogonalEdgeStyle;rounded=0;orthogonalLoop=1;jettySize=auto;html=1;entryX=0;entryY=0.5;entryDx=0;entryDy=0;" edge="1" parent="1" source="Wche7l3t2oy5YNCbTmcv-27" target="Wche7l3t2oy5YNCbTmcv-25">
          <mxGeometry relative="1" as="geometry" />
        </mxCell>
        <mxCell id="Wche7l3t2oy5YNCbTmcv-31" style="edgeStyle=orthogonalEdgeStyle;rounded=0;orthogonalLoop=1;jettySize=auto;html=1;entryX=0;entryY=0.5;entryDx=0;entryDy=0;" edge="1" parent="1" source="Wche7l3t2oy5YNCbTmcv-27" target="Wche7l3t2oy5YNCbTmcv-30">
          <mxGeometry relative="1" as="geometry" />
        </mxCell>
        <mxCell id="Wche7l3t2oy5YNCbTmcv-33" style="edgeStyle=orthogonalEdgeStyle;rounded=0;orthogonalLoop=1;jettySize=auto;html=1;entryX=0;entryY=0.5;entryDx=0;entryDy=0;" edge="1" parent="1" source="Wche7l3t2oy5YNCbTmcv-27" target="Wche7l3t2oy5YNCbTmcv-32">
          <mxGeometry relative="1" as="geometry" />
        </mxCell>
        <mxCell id="Wche7l3t2oy5YNCbTmcv-27" value="User" style="shape=umlActor;verticalLabelPosition=bottom;verticalAlign=top;html=1;" vertex="1" parent="1">
          <mxGeometry x="40" y="600" width="40" height="80" as="geometry" />
        </mxCell>
        <mxCell id="Wche7l3t2oy5YNCbTmcv-30" value="Update email" style="ellipse;whiteSpace=wrap;html=1;" vertex="1" parent="1">
          <mxGeometry x="210" y="710" width="140" height="70" as="geometry" />
        </mxCell>
        <mxCell id="Wche7l3t2oy5YNCbTmcv-32" value="Update password" style="ellipse;whiteSpace=wrap;html=1;" vertex="1" parent="1">
          <mxGeometry x="210" y="800" width="140" height="70" as="geometry" />
        </mxCell>
      </root>
    </mxGraphModel>
  </diagram>
</mxfile>
